<?xml version="1.0" encoding="UTF-8"?>
<svg xmlns="http://www.w3.org/2000/svg" width="600" height="450" viewBox="0 0 600 450" role="img" aria-label="No image">
  <defs>
    <linearGradient id="bg" x1="0" y1="0" x2="1" y2="1">
      <stop offset="0" stop-color="#0f172a"/>
      <stop offset="1" stop-color="#1e293b"/>
    </linearGradient>
  </defs>
  <rect width="600" height="450" fill="url(#bg)"/>
  <rect x="60" y="60" width="480" height="330" rx="24" fill="#0b1220" opacity="0.55" stroke="#00BCD4" stroke-opacity="0.35"/>
  <g fill="none" stroke="#00BCD4" stroke-width="10" stroke-linecap="round" stroke-linejoin="round" opacity="0.9">
    <path d="M210 295l55-70 55 55 35-45 70 90"/>
    <path d="M210 165h180a25 25 0 0 1 25 25v120a25 25 0 0 1-25 25H210a25 25 0 0 1-25-25V190a25 25 0 0 1 25-25z"/>
    <circle cx="260" cy="215" r="18"/>
  </g>
  <text x="300" y="365" text-anchor="middle" fill="#e2e8f0" font-family="system-ui, -apple-system, Segoe UI, Roboto, Arial" font-size="20" opacity="0.9">
    No image available
  </text>
</svg>
